<mxfile host="app.diagrams.net" agent="Mozilla/5.0 (Windows NT 10.0; Win64; x64) AppleWebKit/537.36 (KHTML, like Gecko) Chrome/137.0.0.0 Safari/537.36 Edg/137.0.0.0" version="27.1.4">
  <diagram name="Page-1" id="Ld6vL4baBTNlo-v3CDsi">
    <mxGraphModel dx="1605" dy="923" grid="1" gridSize="10" guides="1" tooltips="1" connect="1" arrows="1" fold="1" page="1" pageScale="1" pageWidth="827" pageHeight="1169" math="0" shadow="0">
      <root>
        <mxCell id="0" />
        <mxCell id="1" parent="0" />
        <mxCell id="LcHsbRKN5AjCWwVruESh-37" value="" style="rounded=1;whiteSpace=wrap;html=1;strokeWidth=1;dashed=1;fillColor=none;arcSize=6;" parent="1" vertex="1">
          <mxGeometry x="890" y="260" width="740" height="610" as="geometry" />
        </mxCell>
        <mxCell id="LcHsbRKN5AjCWwVruESh-36" value="" style="rounded=1;whiteSpace=wrap;html=1;strokeWidth=1;dashed=1;fillColor=none;arcSize=6;" parent="1" vertex="1">
          <mxGeometry x="40" y="270" width="820" height="600" as="geometry" />
        </mxCell>
        <mxCell id="LcHsbRKN5AjCWwVruESh-1" value="Integration model&amp;nbsp;&lt;div&gt;&lt;span style=&quot;font-weight: normal;&quot;&gt;(how tables are related)&lt;/span&gt;&lt;/div&gt;" style="text;html=1;align=left;verticalAlign=middle;whiteSpace=wrap;rounded=0;fontSize=48;fontStyle=1" parent="1" vertex="1">
          <mxGeometry x="70" y="40" width="550" height="80" as="geometry" />
        </mxCell>
        <mxCell id="LcHsbRKN5AjCWwVruESh-7" value="&lt;font style=&quot;font-size: 20px;&quot;&gt;crm_cust_info&lt;/font&gt;" style="swimlane;fontStyle=0;childLayout=stackLayout;horizontal=1;startSize=30;horizontalStack=0;resizeParent=1;resizeParentMax=0;resizeLast=0;collapsible=1;marginBottom=0;whiteSpace=wrap;html=1;rounded=1;fillColor=#f8cecc;strokeColor=#b85450;fontSize=24;" parent="1" vertex="1">
          <mxGeometry x="500" y="570" width="290" height="170" as="geometry" />
        </mxCell>
        <mxCell id="LcHsbRKN5AjCWwVruESh-8" value="cst_id" style="text;strokeColor=none;fillColor=none;align=left;verticalAlign=middle;spacingLeft=4;spacingRight=4;overflow=hidden;points=[[0,0.5],[1,0.5]];portConstraint=eastwest;rotatable=0;whiteSpace=wrap;html=1;fontSize=24;" parent="LcHsbRKN5AjCWwVruESh-7" vertex="1">
          <mxGeometry y="30" width="290" height="50" as="geometry" />
        </mxCell>
        <mxCell id="LcHsbRKN5AjCWwVruESh-26" value="cst_key" style="text;strokeColor=none;fillColor=none;align=left;verticalAlign=middle;spacingLeft=4;spacingRight=4;overflow=hidden;points=[[0,0.5],[1,0.5]];portConstraint=eastwest;rotatable=0;whiteSpace=wrap;html=1;fontSize=24;" parent="LcHsbRKN5AjCWwVruESh-7" vertex="1">
          <mxGeometry y="80" width="290" height="50" as="geometry" />
        </mxCell>
        <mxCell id="iI19U4iNkeVaTwDyufnD-3" value="CUSTOMER" style="text;html=1;strokeColor=#82b366;fillColor=#d5e8d4;align=center;verticalAlign=middle;whiteSpace=wrap;overflow=hidden;fontSize=24;fontStyle=1" vertex="1" parent="LcHsbRKN5AjCWwVruESh-7">
          <mxGeometry y="130" width="290" height="40" as="geometry" />
        </mxCell>
        <mxCell id="LcHsbRKN5AjCWwVruESh-11" value="Customer Information" style="text;html=1;align=center;verticalAlign=middle;whiteSpace=wrap;rounded=0;fontSize=24;" parent="1" vertex="1">
          <mxGeometry x="510" y="530" width="270" height="30" as="geometry" />
        </mxCell>
        <mxCell id="LcHsbRKN5AjCWwVruESh-13" value="&lt;font style=&quot;font-size: 20px;&quot;&gt;crm_prd_info&lt;/font&gt;" style="swimlane;fontStyle=0;childLayout=stackLayout;horizontal=1;startSize=30;horizontalStack=0;resizeParent=1;resizeParentMax=0;resizeLast=0;collapsible=1;marginBottom=0;whiteSpace=wrap;html=1;rounded=1;fillColor=#f8cecc;strokeColor=#b85450;fontSize=24;" parent="1" vertex="1">
          <mxGeometry x="500" y="370" width="290" height="120" as="geometry" />
        </mxCell>
        <mxCell id="LcHsbRKN5AjCWwVruESh-14" value="prd_key" style="text;strokeColor=none;fillColor=none;align=left;verticalAlign=middle;spacingLeft=4;spacingRight=4;overflow=hidden;points=[[0,0.5],[1,0.5]];portConstraint=eastwest;rotatable=0;whiteSpace=wrap;html=1;fontSize=24;" parent="LcHsbRKN5AjCWwVruESh-13" vertex="1">
          <mxGeometry y="30" width="290" height="50" as="geometry" />
        </mxCell>
        <mxCell id="iI19U4iNkeVaTwDyufnD-1" value="PRODUCT" style="text;html=1;strokeColor=#d6b656;fillColor=#fff2cc;align=center;verticalAlign=middle;whiteSpace=wrap;overflow=hidden;fontSize=24;fontStyle=1" vertex="1" parent="LcHsbRKN5AjCWwVruESh-13">
          <mxGeometry y="80" width="290" height="40" as="geometry" />
        </mxCell>
        <mxCell id="LcHsbRKN5AjCWwVruESh-15" value="Product Information" style="text;html=1;align=center;verticalAlign=middle;whiteSpace=wrap;rounded=0;fontSize=24;" parent="1" vertex="1">
          <mxGeometry x="510" y="330" width="270" height="30" as="geometry" />
        </mxCell>
        <mxCell id="LcHsbRKN5AjCWwVruESh-16" value="&lt;font style=&quot;font-size: 20px;&quot;&gt;crm_sales_details&lt;/font&gt;" style="swimlane;fontStyle=0;childLayout=stackLayout;horizontal=1;startSize=30;horizontalStack=0;resizeParent=1;resizeParentMax=0;resizeLast=0;collapsible=1;marginBottom=0;whiteSpace=wrap;html=1;rounded=1;fillColor=#f8cecc;strokeColor=#b85450;fontSize=24;" parent="1" vertex="1">
          <mxGeometry x="70" y="440" width="290" height="170" as="geometry" />
        </mxCell>
        <mxCell id="LcHsbRKN5AjCWwVruESh-17" value="sls_prd_key" style="text;strokeColor=none;fillColor=none;align=left;verticalAlign=middle;spacingLeft=4;spacingRight=4;overflow=hidden;points=[[0,0.5],[1,0.5]];portConstraint=eastwest;rotatable=0;whiteSpace=wrap;html=1;fontSize=24;" parent="LcHsbRKN5AjCWwVruESh-16" vertex="1">
          <mxGeometry y="30" width="290" height="50" as="geometry" />
        </mxCell>
        <mxCell id="LcHsbRKN5AjCWwVruESh-20" value="sls_cust_id" style="text;strokeColor=none;fillColor=none;align=left;verticalAlign=middle;spacingLeft=4;spacingRight=4;overflow=hidden;points=[[0,0.5],[1,0.5]];portConstraint=eastwest;rotatable=0;whiteSpace=wrap;html=1;fontSize=24;" parent="LcHsbRKN5AjCWwVruESh-16" vertex="1">
          <mxGeometry y="80" width="290" height="50" as="geometry" />
        </mxCell>
        <mxCell id="iI19U4iNkeVaTwDyufnD-6" value="SALES" style="text;html=1;strokeColor=#56517e;fillColor=#d0cee2;align=center;verticalAlign=middle;whiteSpace=wrap;overflow=hidden;fontSize=24;fontStyle=1;" vertex="1" parent="LcHsbRKN5AjCWwVruESh-16">
          <mxGeometry y="130" width="290" height="40" as="geometry" />
        </mxCell>
        <mxCell id="LcHsbRKN5AjCWwVruESh-18" value="Sales Information" style="text;html=1;align=center;verticalAlign=middle;whiteSpace=wrap;rounded=0;fontSize=24;" parent="1" vertex="1">
          <mxGeometry x="80" y="400" width="270" height="30" as="geometry" />
        </mxCell>
        <mxCell id="LcHsbRKN5AjCWwVruESh-21" style="edgeStyle=orthogonalEdgeStyle;rounded=0;orthogonalLoop=1;jettySize=auto;html=1;entryX=0;entryY=0.5;entryDx=0;entryDy=0;" parent="1" source="LcHsbRKN5AjCWwVruESh-17" target="LcHsbRKN5AjCWwVruESh-14" edge="1">
          <mxGeometry relative="1" as="geometry" />
        </mxCell>
        <mxCell id="LcHsbRKN5AjCWwVruESh-22" style="edgeStyle=orthogonalEdgeStyle;rounded=0;orthogonalLoop=1;jettySize=auto;html=1;" parent="1" source="LcHsbRKN5AjCWwVruESh-20" target="LcHsbRKN5AjCWwVruESh-8" edge="1">
          <mxGeometry relative="1" as="geometry" />
        </mxCell>
        <mxCell id="LcHsbRKN5AjCWwVruESh-23" value="&lt;font style=&quot;font-size: 20px;&quot;&gt;erp_cust_az12&lt;/font&gt;" style="swimlane;fontStyle=0;childLayout=stackLayout;horizontal=1;startSize=30;horizontalStack=0;resizeParent=1;resizeParentMax=0;resizeLast=0;collapsible=1;marginBottom=0;whiteSpace=wrap;html=1;rounded=1;fillColor=#dae8fc;strokeColor=#6c8ebf;fontSize=24;" parent="1" vertex="1">
          <mxGeometry x="1180" y="550" width="290" height="120" as="geometry" />
        </mxCell>
        <mxCell id="LcHsbRKN5AjCWwVruESh-24" value="cid" style="text;strokeColor=none;fillColor=none;align=left;verticalAlign=middle;spacingLeft=4;spacingRight=4;overflow=hidden;points=[[0,0.5],[1,0.5]];portConstraint=eastwest;rotatable=0;whiteSpace=wrap;html=1;fontSize=24;" parent="LcHsbRKN5AjCWwVruESh-23" vertex="1">
          <mxGeometry y="30" width="290" height="50" as="geometry" />
        </mxCell>
        <mxCell id="iI19U4iNkeVaTwDyufnD-4" value="CUSTOMER" style="text;html=1;strokeColor=#82b366;fillColor=#d5e8d4;align=center;verticalAlign=middle;whiteSpace=wrap;overflow=hidden;fontSize=24;fontStyle=1" vertex="1" parent="LcHsbRKN5AjCWwVruESh-23">
          <mxGeometry y="80" width="290" height="40" as="geometry" />
        </mxCell>
        <mxCell id="LcHsbRKN5AjCWwVruESh-25" value="Extra Customer Information (Birthday)" style="text;html=1;align=center;verticalAlign=middle;whiteSpace=wrap;rounded=0;fontSize=24;" parent="1" vertex="1">
          <mxGeometry x="1110" y="510" width="430" height="30" as="geometry" />
        </mxCell>
        <mxCell id="LcHsbRKN5AjCWwVruESh-27" style="edgeStyle=orthogonalEdgeStyle;rounded=0;orthogonalLoop=1;jettySize=auto;html=1;" parent="1" source="LcHsbRKN5AjCWwVruESh-24" target="LcHsbRKN5AjCWwVruESh-26" edge="1">
          <mxGeometry relative="1" as="geometry">
            <Array as="points">
              <mxPoint x="990" y="605" />
              <mxPoint x="990" y="675" />
            </Array>
          </mxGeometry>
        </mxCell>
        <mxCell id="LcHsbRKN5AjCWwVruESh-31" style="edgeStyle=orthogonalEdgeStyle;rounded=0;orthogonalLoop=1;jettySize=auto;html=1;entryX=1;entryY=0.5;entryDx=0;entryDy=0;" parent="1" source="LcHsbRKN5AjCWwVruESh-28" target="LcHsbRKN5AjCWwVruESh-26" edge="1">
          <mxGeometry relative="1" as="geometry">
            <Array as="points">
              <mxPoint x="990" y="780" />
              <mxPoint x="990" y="675" />
            </Array>
          </mxGeometry>
        </mxCell>
        <mxCell id="LcHsbRKN5AjCWwVruESh-28" value="&lt;font style=&quot;font-size: 20px;&quot;&gt;erp_loc_a101&lt;/font&gt;" style="swimlane;fontStyle=0;childLayout=stackLayout;horizontal=1;startSize=30;horizontalStack=0;resizeParent=1;resizeParentMax=0;resizeLast=0;collapsible=1;marginBottom=0;whiteSpace=wrap;html=1;rounded=1;fillColor=#dae8fc;strokeColor=#6c8ebf;fontSize=24;" parent="1" vertex="1">
          <mxGeometry x="1180" y="720" width="290" height="120" as="geometry" />
        </mxCell>
        <mxCell id="LcHsbRKN5AjCWwVruESh-29" value="cid" style="text;strokeColor=none;fillColor=none;align=left;verticalAlign=middle;spacingLeft=4;spacingRight=4;overflow=hidden;points=[[0,0.5],[1,0.5]];portConstraint=eastwest;rotatable=0;whiteSpace=wrap;html=1;fontSize=24;" parent="LcHsbRKN5AjCWwVruESh-28" vertex="1">
          <mxGeometry y="30" width="290" height="50" as="geometry" />
        </mxCell>
        <mxCell id="iI19U4iNkeVaTwDyufnD-5" value="CUSTOMER" style="text;html=1;strokeColor=#82b366;fillColor=#d5e8d4;align=center;verticalAlign=middle;whiteSpace=wrap;overflow=hidden;fontSize=24;fontStyle=1" vertex="1" parent="LcHsbRKN5AjCWwVruESh-28">
          <mxGeometry y="80" width="290" height="40" as="geometry" />
        </mxCell>
        <mxCell id="LcHsbRKN5AjCWwVruESh-30" value="Extra Customer Information (Country)" style="text;html=1;align=center;verticalAlign=middle;whiteSpace=wrap;rounded=0;fontSize=24;" parent="1" vertex="1">
          <mxGeometry x="1110" y="680" width="430" height="30" as="geometry" />
        </mxCell>
        <mxCell id="LcHsbRKN5AjCWwVruESh-32" value="&lt;font style=&quot;font-size: 20px;&quot;&gt;erp_px_cat_g1v2&lt;/font&gt;" style="swimlane;fontStyle=0;childLayout=stackLayout;horizontal=1;startSize=30;horizontalStack=0;resizeParent=1;resizeParentMax=0;resizeLast=0;collapsible=1;marginBottom=0;whiteSpace=wrap;html=1;rounded=1;fillColor=#dae8fc;strokeColor=#6c8ebf;fontSize=24;" parent="1" vertex="1">
          <mxGeometry x="1180" y="370" width="290" height="120" as="geometry" />
        </mxCell>
        <mxCell id="LcHsbRKN5AjCWwVruESh-33" value="id" style="text;strokeColor=none;fillColor=none;align=left;verticalAlign=middle;spacingLeft=4;spacingRight=4;overflow=hidden;points=[[0,0.5],[1,0.5]];portConstraint=eastwest;rotatable=0;whiteSpace=wrap;html=1;fontSize=24;" parent="LcHsbRKN5AjCWwVruESh-32" vertex="1">
          <mxGeometry y="30" width="290" height="50" as="geometry" />
        </mxCell>
        <mxCell id="iI19U4iNkeVaTwDyufnD-2" value="PRODUCT" style="text;html=1;strokeColor=#d6b656;fillColor=#fff2cc;align=center;verticalAlign=middle;whiteSpace=wrap;overflow=hidden;fontSize=24;fontStyle=1" vertex="1" parent="LcHsbRKN5AjCWwVruESh-32">
          <mxGeometry y="80" width="290" height="40" as="geometry" />
        </mxCell>
        <mxCell id="LcHsbRKN5AjCWwVruESh-34" value="Extra Product Information (Category)" style="text;html=1;align=center;verticalAlign=middle;whiteSpace=wrap;rounded=0;fontSize=24;" parent="1" vertex="1">
          <mxGeometry x="1110" y="330" width="430" height="30" as="geometry" />
        </mxCell>
        <mxCell id="LcHsbRKN5AjCWwVruESh-35" style="edgeStyle=orthogonalEdgeStyle;rounded=0;orthogonalLoop=1;jettySize=auto;html=1;entryX=1;entryY=0.5;entryDx=0;entryDy=0;" parent="1" source="LcHsbRKN5AjCWwVruESh-33" target="LcHsbRKN5AjCWwVruESh-14" edge="1">
          <mxGeometry relative="1" as="geometry" />
        </mxCell>
        <mxCell id="LcHsbRKN5AjCWwVruESh-38" value="CRM" style="rounded=1;whiteSpace=wrap;html=1;fillColor=#f8cecc;strokeColor=#b85450;fontSize=40;fontStyle=1" parent="1" vertex="1">
          <mxGeometry x="360" y="230" width="120" height="60" as="geometry" />
        </mxCell>
        <mxCell id="LcHsbRKN5AjCWwVruESh-39" value="ERP" style="rounded=1;whiteSpace=wrap;html=1;fillColor=#dae8fc;strokeColor=#6c8ebf;fontSize=40;fontStyle=1" parent="1" vertex="1">
          <mxGeometry x="1200" y="230" width="120" height="60" as="geometry" />
        </mxCell>
      </root>
    </mxGraphModel>
  </diagram>
</mxfile>
